<svg class="typst-doc" viewBox="0 0 11.04 8.982999999999999" width="11.04pt" height="8.982999999999999pt" xmlns="http://www.w3.org/2000/svg" xmlns:xlink="http://www.w3.org/1999/xlink" xmlns:h5="http://www.w3.org/1999/xhtml">
    <path class="typst-shape" fill="#ffffff" fill-rule="nonzero" d="M 0 0v 8.983 h 11.04 v -8.983 Z "/>
    <g>
        <g class="typst-text" transform="matrix(1 0 0 -1 2 6.862)">
            <use xlink:href="#gB0757B755337AE014B2EDA3FE1E78646" x="0" y="0" fill="#000000" fill-rule="nonzero"/>
        </g>
    </g>
    <defs id="glyph">
        <symbol id="gB0757B755337AE014B2EDA3FE1E78646" overflow="visible">
            <path d="M 0 0m 3.41 4.862 c -0.75900006 0 -1.4410001 -0.32999992 -2.046 -0.9790001 c -0.60499996 -0.6489999 -0.913 -1.3639998 -0.913 -2.1339998 c 0 -1.078 0.7260001 -1.87 1.8039999 -1.87 c 0.75900006 0 1.5070002 0.297 2.2549999 0.88 c 0.16500044 -0.583 0.50600004 -0.88 1.0120001 -0.88 c 0.3959999 0 0.95700026 0.41799998 0.95700026 0.814 c 0 0.09899998 -0.055000305 0.14299995 -0.17600012 0.14299995 c -0.07700014 0 -0.14300013 -0.04399997 -0.17600012 -0.13199997 c -0.08799982 -0.231 -0.31899977 -0.506 -0.572 -0.506 c -0.1869998 0 -0.28599977 0.352 -0.28599977 1.067 c 0 0.15400004 0.032999992 0.27499998 0.09899998 0.352 c 0.29699993 0.36300004 0.5609999 0.781 0.77 1.2429999 c 0.2750001 0.5940001 0.44000006 1.0340002 0.48399973 1.3199999 v 0.04400015 c -0.032999992 0.07700014 -0.09899998 0.11000013 -0.17599964 0.11000013 c -0.055000305 -0.011000156 -0.12100029 -0.09899998 -0.19799995 -0.25300026 c -0.23099995 -0.7919998 -0.5500002 -1.474 -0.9790001 -2.0349998 v 0.54999995 c 0 1.276 -0.638 2.266 -1.859 2.266 Z m 1.023 -2.541 c 0 -0.64900017 0.01099968 -1.0450001 0.021999836 -1.1880001 c -0.7149999 -0.62700003 -1.441 -0.935 -2.178 -0.935 c -0.627 0 -0.93499994 0.385 -0.93499994 1.144 c 0 0.638 0.36300004 1.826 0.61599994 2.222 c 0.41799998 0.6489999 0.90199995 0.97899985 1.441 0.97899985 c 0.34100008 0 0.572 -0.13199997 0.7149999 -0.3959999 c 0.07700014 -0.13199997 0.13199997 -0.26399994 0.18700027 -0.38499975 c 0.08799982 -0.25300002 0.13199997 -0.924 0.13199997 -1.441 Z "/>
        </symbol>
    </defs>
</svg>
