<?xml version="1.0" encoding="UTF-8"?>
<svg width="305px" height="67px" viewBox="0 0 305 67" version="1.1" xmlns="http://www.w3.org/2000/svg" xmlns:xlink="http://www.w3.org/1999/xlink">
    <title>编组</title>
    <g id="页面-1" stroke="none" stroke-width="1" fill="none" fill-rule="evenodd">
        <g id="编组" transform="translate(1, 0)">
            <g id="RetainPDF-logo-1" transform="translate(-0, 3)" fill="#262626" fill-rule="nonzero" stroke="#262626" stroke-width="0.3">
                <path d="M42.76434,16.6283359 C40.6916993,16.6283359 39.9735853,14.719028 39.9735853,13.5257106 L39.9735853,0 L4.76879369,0 C1.63833218,0 0,2.65567368 0,4.89043176 L0,55.1399437 C0,58.2642654 2.67465254,60 4.94509714,60 L50.6119941,60 C53.7424558,60 56,57.7478844 56,54.8969407 L56,16.2204383 L42.76434,16.6066392 L42.76434,16.6283359 Z M51.9837212,53.8641786 C51.9837212,55.9166847 50.2120863,57.0492515 48.8704599,57.0492515 L6.46302696,57.0492515 C4.42048684,57.0492515 3.50886892,55.1269254 3.50886892,53.9509654 L3.50886892,6.39184203 C3.50886892,4.59101756 4.82899487,3.22846604 6.38992551,3.22846604 L36.7399217,3.22846604 L36.7399217,14.2460403 C36.7399217,17.5135604 39.5306766,19.0974181 42.2354297,19.0974181 L51.9837212,19.0974181 L51.9837212,53.8598393 L51.9837212,53.8641786 Z" id="形状"></path>
                <path d="M44.1963263,14 L56,14 L42,0 L42,10.9602978 C42,12.7363524 42.9190003,14 44.1963263,14 Z" id="路径"></path>
                <path d="M29.8988925,37.9224525 L38,37.9224525 L29.9390854,28.4185584 C33.4403358,26.9839271 35.3204715,23.8173985 35.3204715,20.6508699 C35.3204715,16.4719138 32.0469811,12 26.0671668,12 L13,12 L13,38 L19.4442658,38 L19.4442658,29.0863297 L23.5394784,29.0863297 L30.2829582,37.9310686 L29.8988925,37.9224525 L29.8988925,37.9224525 Z M19.4442658,16.4891466 L25.0936049,16.4891466 C28.0321543,16.4891466 29.278135,18.9620547 29.278135,20.801657 C29.278135,22.9600663 27.5185781,25.0107705 25.2141836,25.0107705 L19.4442658,25.0107705 L19.4442658,16.4891466 L19.4442658,16.4891466 Z" id="形状"></path>
                <polygon id="路径" points="47 44 11 44 11 46 47 46"></polygon>
                <polygon id="路径" points="31 50 11 50 11 52 31 52"></polygon>
            </g>
            <text id="RetainPDF" font-family="PingFangSC-Medium, PingFang SC" font-size="48" font-weight="400" fill="#000000">
                <tspan x="63.932" y="51">RetainPDF</tspan>
            </text>
        </g>
    </g>
</svg>